<?xml version="1.0" encoding="UTF-8" standalone="no"?>
<!-- Created with Inkscape (http://www.inkscape.org/) -->

<svg
   version="1.1"
   id="svg66595"
   width="800"
   height="800"
   viewBox="0 0 800 800"
   sodipodi:docname="skull-monochrome-4-publicdomainvectors.org.svg"
   inkscape:version="1.2 (dc2aedaf03, 2022-05-15)"
   xmlns:inkscape="http://www.inkscape.org/namespaces/inkscape"
   xmlns:sodipodi="http://sodipodi.sourceforge.net/DTD/sodipodi-0.dtd"
   xmlns="http://www.w3.org/2000/svg"
   xmlns:svg="http://www.w3.org/2000/svg">
  <defs
     id="defs66599">
    <clipPath
       clipPathUnits="userSpaceOnUse"
       id="clipPath66611">
      <path
         d="M 0,600 H 600 V 0 H 0 Z"
         id="path66609" />
    </clipPath>
  </defs>
  <sodipodi:namedview
     id="namedview66597"
     pagecolor="#ffffff"
     bordercolor="#000000"
     borderopacity="0.25"
     inkscape:showpageshadow="2"
     inkscape:pageopacity="0.0"
     inkscape:pagecheckerboard="0"
     inkscape:deskcolor="#d1d1d1"
     showgrid="false"
     inkscape:zoom="1.04625"
     inkscape:cx="400"
     inkscape:cy="400.4779"
     inkscape:window-width="1920"
     inkscape:window-height="1017"
     inkscape:window-x="-8"
     inkscape:window-y="-8"
     inkscape:window-maximized="1"
     inkscape:current-layer="g66603">
    <inkscape:page
       x="0"
       y="0"
       id="page66601"
       width="800"
       height="800" />
  </sodipodi:namedview>
  <g
     id="g66603"
     inkscape:groupmode="layer"
     inkscape:label="Page 1"
     transform="matrix(1.3333333,0,0,-1.3333333,0,800)">
    <g
       id="g66605">
      <g
         id="g66607"
         clip-path="url(#clipPath66611)">
        <g
           id="g66613"
           transform="translate(234.3696,214)">
          <path
             d="m 0,0 0.222,-1.33 c 0,0 -11.237,-22.691 -27.346,-25.502 6.31,6.811 10.815,14.836 13.235,21.959 3.201,1.056 6.394,2.154 9.575,3.297 C -2.872,-1.058 -1.436,-0.532 0,0 m -5.328,0.481 c -2.826,-1.821 -5.679,-3.604 -8.561,-5.354 2.111,6.215 2.632,11.736 1.377,15.175 1.697,0.512 3.398,1.004 5.103,1.467 1.737,0.474 3.481,0.913 5.225,1.332 L -0.595,3.575 C -2.165,2.533 -3.744,1.5 -5.328,0.481 m 225.779,13.477 c -4.427,0.006 -9.904,0.112 -15.498,1.622 -1.43,0.748 -3.107,1.383 -5.11,1.81 -1.284,0.573 -2.561,1.231 -3.816,2.014 l -9.601,4.967 c 0,0 1.191,-7.98 3.226,-16.19 1.875,-8.986 6.159,-31.221 4.941,-41.377 -0.386,0.534 -0.881,1.018 -1.518,1.407 -0.945,0.578 -2.001,0.616 -2.901,0.108 -0.132,-0.076 -0.258,-0.17 -0.383,-0.275 -0.401,1.317 -0.792,2.642 -1.162,3.97 -0.617,2.228 -1.193,4.468 -1.689,6.723 -0.494,2.256 -0.93,4.529 -1.158,6.818 -0.11,1.143 -0.178,2.295 -0.091,3.435 0.056,0.565 0.116,1.143 0.317,1.673 0.19,0.521 0.486,1.061 1.039,1.297 -0.58,-0.166 -0.973,-0.69 -1.236,-1.212 -0.28,-0.533 -0.415,-1.117 -0.546,-1.696 -0.235,-1.165 -0.309,-2.35 -0.342,-3.529 -0.055,-2.359 0.101,-4.71 0.318,-7.051 0.221,-2.339 0.521,-4.67 0.866,-6.993 0.109,-0.731 0.23,-1.459 0.348,-2.185 -0.676,0.362 -1.432,0.469 -2.19,0.294 -1.591,-0.371 -2.969,-2.022 -3.983,-3.67 -0.384,1.311 -0.754,2.627 -1.107,3.942 -0.671,2.51 -1.289,5.035 -1.811,7.576 -0.517,2.543 -0.959,5.104 -1.145,7.683 -0.083,1.285 -0.114,2.584 0.068,3.853 0.097,0.63 0.236,1.264 0.533,1.827 0.277,0.567 0.784,1.042 1.439,1.161 -0.662,-0.042 -1.267,-0.483 -1.624,-1.051 -0.379,-0.561 -0.595,-1.208 -0.77,-1.85 -0.332,-1.297 -0.445,-2.628 -0.505,-3.952 -0.101,-2.651 0.063,-5.294 0.303,-7.921 0.222,-2.371 0.53,-4.728 0.878,-7.078 -0.572,0.354 -1.23,0.577 -2.007,0.577 -1.746,0 -3.336,-1.416 -4.691,-3.315 -0.266,1.621 -0.52,3.245 -0.76,4.868 -0.445,3.032 -0.845,6.071 -1.169,9.116 -0.319,3.045 -0.579,6.101 -0.647,9.158 -0.028,1.527 -0.016,3.058 0.126,4.577 0.079,0.757 0.169,1.518 0.37,2.251 0.2,0.72 0.432,1.494 1.039,1.993 -0.656,-0.443 -0.972,-1.215 -1.244,-1.93 -0.276,-0.729 -0.437,-1.492 -0.591,-2.253 -0.288,-1.527 -0.444,-3.071 -0.559,-4.617 -0.22,-3.091 -0.244,-6.188 -0.211,-9.28 0.041,-3.093 0.157,-6.183 0.319,-9.272 0.001,-0.021 0.002,-0.042 0.004,-0.064 -0.493,0.489 -1.101,0.856 -1.866,1.021 -3.656,0.791 -6.532,-2.749 -6.652,-2.899 l -0.148,-0.185 -0.093,-0.218 c -0.012,-0.032 -0.029,-0.072 -0.043,-0.104 0.105,2.518 0.061,5.011 -0.059,7.491 -0.29,5.565 -0.907,11.075 -1.753,16.541 0.276,-5.52 0.317,-11.053 0.034,-16.538 -0.152,-2.738 -0.39,-5.469 -0.822,-8.132 -0.213,-1.33 -0.49,-2.639 -0.85,-3.887 -0.13,-0.447 -0.279,-0.884 -0.437,-1.309 -1.523,2.428 -3.314,5.275 -3.945,6.221 -0.678,1.017 -1.88,1.399 -3.21,1.025 -0.996,-0.282 -2.124,-1.017 -3.124,-1.967 l 3.475,29.601 -7.945,-32.455 c -6.439,6.984 -8.235,6.663 -8.959,6.532 -0.038,-0.007 -0.069,-0.025 -0.105,-0.034 0.146,0.511 0.295,1.023 0.426,1.535 0.769,3.032 1.332,6.078 1.705,9.147 0.377,3.065 0.559,6.157 0.449,9.238 -0.146,3.059 -0.528,6.214 -1.911,8.951 1.022,-2.881 0.993,-5.951 0.765,-8.926 -0.271,-2.988 -0.823,-5.944 -1.558,-8.845 -0.729,-2.902 -1.641,-5.758 -2.723,-8.509 -0.543,-1.373 -1.132,-2.724 -1.791,-3.986 -0.321,-0.639 -0.678,-1.229 -1.035,-1.78 -0.028,-0.04 -0.057,-0.079 -0.087,-0.119 -3.635,4.26 -4.52,4.552 -5.377,4.236 0.518,1.894 0.824,3.81 0.956,5.716 0.191,2.145 0.123,4.282 0.019,6.398 l -0.309,3.157 -0.462,3.126 0.033,-3.149 -0.122,-3.134 c -0.181,-2.079 -0.401,-4.145 -0.861,-6.15 -0.418,-2.008 -1.025,-3.964 -1.86,-5.767 -0.416,-0.901 -0.887,-1.763 -1.424,-2.551 -0.195,-0.293 -0.409,-0.556 -0.62,-0.821 -0.94,1.331 -2.36,2.599 -4.516,3.153 -1.3,0.334 -2.524,0.096 -3.536,-0.689 -0.292,-0.226 -0.549,-0.5 -0.784,-0.798 -0.5,0.761 -1.286,1.722 -2.43,2.548 l 17.023,38.687 c 0,0 4.237,7.627 8.855,15.39 l 0.064,-0.046 0.132,0.177 c 0.991,1.315 2.173,2.903 3.469,4.67 l 4.436,-18.038 0.247,-1.001 1.196,0.148 8.865,1.097 6.001,-7.683 c 0,0 11.059,7.579 12.97,9.873 0.659,0.791 1.638,-0.468 2.636,-2.454 -0.114,-0.118 -0.233,-0.234 -0.343,-0.353 -1.479,-1.647 -2.577,-3.393 -3.632,-5.159 -1.933,-3.316 -3.576,-6.712 -5.093,-10.192 -4.572,0.914 -9.15,1.939 -13.612,3.276 -4.706,1.49 -9.356,3.28 -13.946,5.17 2.223,-1.109 4.47,-2.176 6.732,-3.208 2.269,-1.026 4.542,-2.029 6.881,-2.932 4.695,-1.747 9.479,-3.135 14.316,-4.422 l 0.744,-0.197 0.384,0.761 c 1.773,3.533 3.721,7.037 5.894,10.297 0.943,1.389 1.944,2.75 3.025,3.911 1.375,-3.424 2.509,-7.108 2.509,-7.108 0,0 5.35,-4.204 8.406,2.737 3.058,6.941 -7.068,46.842 -7.068,46.842 0,0 0.096,1.336 -5.541,2.005 -7.257,0.861 -16.456,-25.868 -20.426,-36.886 l -9.19,-2.636 -6.209,16.399 c 6.418,8.761 15.599,21.919 19.244,30.223 1.14,0.999 3.693,8.427 4.268,14.07 0.284,0.464 0.55,0.935 0.787,1.409 0.236,0.47 0.44,0.947 0.641,1.423 l 2.147,2.437 c 0.834,1.021 1.904,1.836 2.978,2.644 1.084,0.788 2.215,1.51 3.384,2.084 1.155,0.565 2.403,1.012 3.457,1.002 1.083,-0.025 1.535,-0.473 1.908,-1.429 0.397,-1.074 0.658,-2.424 0.903,-3.73 0.242,-1.322 0.456,-2.671 0.675,-4.025 0.877,-5.427 1.797,-10.958 3.636,-16.443 0.936,-2.737 2.092,-5.48 3.802,-8.086 0.439,-0.668 0.926,-1.333 1.457,-1.977 l 1.672,-1.986 c 0,0 27.853,-18.184 30.146,-16.464 1.632,1.223 2.684,15.232 3.361,24.442 0.475,-6.327 1.83,-17.3 5.69,-29.532 0.805,-2.546 -0.179,-10.048 -2.395,-15.831 m -28.07,-52.862 -0.027,-12.311 -2.567,-0.183 c 0.059,7.579 0.847,14.486 1.861,16.378 1.148,-1.203 0.737,-3.86 0.733,-3.884 m -18.361,-17.959 -2.124,-9.662 -0.837,0.42 -3.584,2.116 0.86,7.135 z m 4.265,3.677 c -0.335,-0.105 -0.73,-0.181 -1.148,-0.244 l -5.774,0.009 c -0.651,0.065 -1.285,0.138 -1.869,0.223 l -0.368,11.363 c 1.802,5.003 4.406,9.036 5.408,9.08 0.875,0 1.889,-3.214 2.007,-6.367 l 0.007,-0.21 0.058,-0.199 c 1.074,-3.769 2.384,-10.493 1.679,-13.655 m 3.639,0.786 v 14.015 c 0.908,2.11 2.27,4.184 2.996,4.571 0.942,-0.924 1.669,-3.518 2.104,-6.064 -0.526,-3.83 -0.673,-8.291 -0.681,-11.882 l -0.423,-0.061 c -0.242,0.007 -0.48,-0.034 -0.712,-0.105 z m -2.232,-2.062 h 0.001 z m 0.478,-1.669 2.467,0.358 c -0.79,-2.708 -1.282,-6.482 -1.587,-10.005 -1.631,0.124 -3.263,0.269 -4.438,0.403 l 2.475,8.852 c 0.386,0.11 0.747,0.24 1.083,0.392 m -15.402,0.041 -2.053,-7.518 c -1.767,-1.248 -4.066,-2.262 -4.834,-1.872 -0.84,0.572 -1.877,4.753 -2.204,8.847 0.043,0.579 0.088,1.194 0.134,1.835 2.33,-0.626 5.988,-1.138 8.957,-1.292 m 0.912,14.389 0.359,-11.044 c -2.755,0.093 -7.525,0.733 -9.513,1.257 -0.027,0.534 -0.088,1.239 -0.173,2.214 -0.099,1.113 -0.271,3.092 -0.307,4.743 l 0.395,2.917 c 1.201,2.22 3.816,8.331 4.382,9.663 0.514,0.559 1.905,1.787 3.104,1.528 0.013,-0.003 1.173,-0.312 1.15,-5.382 v -0.198 c 0,-0.507 0.187,-2.209 0.603,-5.698 m 28.802,-56.391 c -0.231,-6.377 -1.999,-14.735 -4.94,-15.76 -4.837,2.381 -11.62,1.599 -18.78,0.774 -10.516,-1.211 -21.386,-2.463 -28.488,4.918 l -0.165,0.171 -0.196,0.135 c -1.569,1.069 -3.186,2.084 -4.832,3.064 -1.294,1.866 -2.964,4.58 -4.509,7.094 -4.698,7.646 -11.134,18.117 -17.994,24.37 -3.066,2.796 -5.95,6.428 -8.542,10.274 1.292,0.099 3.273,0.477 6.373,1.428 0.081,-0.196 0.148,-0.356 0.197,-0.465 0.279,-0.612 0.77,-1.688 4.478,-1.688 1.461,0 3.433,0.17 6.079,0.598 l 0.746,-2.436 h 9.09 c 1.375,-0.838 4.578,-2.73 6.624,-3.517 0.388,-0.149 0.766,-0.217 1.132,-0.217 2.003,0 3.673,2.035 4.853,4.099 0.24,-0.181 0.454,-0.242 0.654,-0.3 0.368,-0.105 1.54,-0.764 2.316,-1.199 2.61,-1.466 3.921,-2.205 5.127,-1.397 0.322,0.214 0.589,0.395 0.855,1.468 0.48,-0.838 1.051,-1.501 1.739,-1.853 0.621,-0.318 1.295,-0.45 1.987,-0.45 2.505,0 5.235,1.722 6.468,2.604 l 4.607,-2.721 4.944,-2.487 0.652,2.966 c 2.008,-0.318 5.783,-0.593 7.556,-0.713 l 1.708,-0.113 0.123,1.705 c 0.364,5.019 1.265,10.979 2.09,12.517 l 0.422,0.062 v -6.605 c -0.565,-1.923 -1.285,-4.158 -1.525,-4.626 0.002,0.003 0.021,0.039 0.047,0.08 -1.393,-3.734 -0.374,-9.295 1.444,-14.779 -0.191,-0.27 -0.399,-0.532 -0.656,-0.778 -0.724,-0.685 -1.607,-1.316 -2.641,-1.801 -2.044,-1.006 -4.432,-1.632 -6.863,-2.058 -4.896,-0.832 -10.019,-0.947 -15.116,-0.796 -5.106,0.147 -10.224,0.609 -15.327,1.216 -5.101,0.629 -10.194,1.404 -15.249,2.402 4.97,-1.369 10.002,-2.525 15.069,-3.535 5.071,-0.988 10.181,-1.835 15.353,-2.37 5.171,-0.533 10.403,-0.822 15.731,-0.324 2.66,0.272 5.36,0.734 8.039,1.803 1.125,0.434 2.237,1.047 3.289,1.821 2.293,-5.709 4.985,-10.71 6.031,-12.581 m -88.585,7.053 c -10.341,9.692 -18.187,30.951 -22.754,46.149 7.287,-6.1 13.167,-10.689 15.227,-12.28 3.699,-6.588 8.486,-13.769 13.889,-18.696 0.48,-0.438 0.956,-0.904 1.432,-1.382 1.018,-2.989 4.722,-13.794 6.91,-19.372 -4.96,2.083 -9.931,3.918 -14.704,5.581 m -31.88,13.73 c -0.703,2.11 -2.16,3.941 -4.1,5.553 -3.796,11.069 -4.048,36.657 -3.093,53.12 l 0.016,0.275 -0.07,0.264 c -0.226,0.854 -3.447,12.93 -7.974,24.412 l 11.466,-6.659 c 7.033,-13.313 2.731,-33.436 9.575,-41.555 0.949,-3.339 2.083,-7.096 3.397,-11.047 0.619,-4.284 3.569,-23.772 7.254,-32.855 -8.348,2.9 -15.578,5.813 -16.471,8.492 m -10.666,58.154 c -2.959,-9.171 -11.238,-35.444 -11.777,-44.014 -0.427,0.144 -0.852,0.287 -1.271,0.429 -3.73,1.254 -7.253,2.438 -9.069,3.499 -4.728,2.76 -3.087,11.542 6.753,36.144 6.033,15.082 0.693,29.527 -3.942,37.978 l 9.899,-5.748 c 4.946,-11.535 8.863,-25.75 9.431,-27.847 -0.007,-0.131 -0.015,-0.281 -0.024,-0.441 m 15.871,46.307 c 1.566,-1.064 3.139,-1.966 4.713,-2.739 C 79.767,23.164 73.774,20.799 71.749,17.12 71.199,16.119 70.958,15.084 71.021,14.025 64.119,19.338 55.316,26.494 43.856,35.898 53.678,35.822 68.151,34.674 79.222,27.152 M 76.92,9.604 c -0.565,1.748 -1.219,4.173 -0.842,4.857 1.944,3.535 7.195,7.529 11.234,8.492 4.373,-1.627 8.71,-2.277 12.843,-2.277 7.071,0 13.548,1.895 18.598,4.032 C 114.499,18.136 109.943,11.121 105.085,6.919 96.803,-0.242 94.292,-3.003 76.92,9.604 m 25.137,-50.734 c -1.31,0.218 -3.277,0.597 -5.645,1.228 -1.785,0.475 -1.958,2.338 -1.653,5.613 0.082,0.883 0.143,1.528 0.044,2.09 0.026,1.018 1.664,4.387 2.592,5.121 3.376,-0.047 4.914,-2.304 5.372,-3.147 z m 9.428,-17.177 c -2.345,-0.709 -4.574,-1.228 -5.717,-1.337 -0.76,2.796 -2.965,9.58 -4.283,13.587 2.077,0.065 4.4,-0.099 5.215,-0.742 1.294,-1.023 3.997,-8.402 4.785,-11.508 m -2.965,14.416 c -0.518,0.34 -1.136,0.598 -1.811,0.786 v 6.911 c 0.004,2.062 0.508,5.5 1.58,6.329 0.116,0.091 0.24,0.16 0.572,0.075 2.937,-0.755 3.614,-4.02 3.698,-4.497 0.134,-2.02 0.47,-7.817 0.664,-11.206 z m 8.805,-5.186 c 1.181,-1.252 3.853,-7.748 4.42,-10.836 -2.672,-0.371 -5.221,-0.51 -6.189,-0.325 -0.118,0.29 -0.274,0.688 -0.456,1.157 -0.226,1.764 -1.544,6.145 -3.116,9.779 2.38,0.264 4.634,0.39 5.341,0.225 m -0.089,4.513 c -0.409,0.813 -0.563,3.863 -0.646,5.527 -0.128,2.543 -0.231,4.231 -0.635,5.358 0.349,0.443 1.404,1.176 2.002,1.59 0.615,0.428 1.238,0.86 1.756,1.33 1.019,-1.088 2.487,-2.792 3.79,-4.38 l 0.741,-10.856 c -3.069,0.402 -6.152,0.981 -7.008,1.431 m 11.341,-6.393 c 0.757,-0.324 1.567,-0.531 2.391,-0.661 l -0.437,-10.56 h -4.078 l -3.966,12.948 c 1.347,-0.195 2.586,-0.336 3.438,-0.424 l 0.938,-0.096 c 0.459,-0.497 1.022,-0.909 1.714,-1.207 m 9.116,3.199 c -1.989,-0.495 -5.456,-1.026 -7.762,-0.039 -1.604,0.689 -1.65,4.192 -1.683,6.749 -0.022,1.663 -0.653,2.672 -0.384,4.079 0.268,0.613 1.005,1.848 1.517,2.705 0.635,1.065 1.285,2.153 1.767,3.126 1.635,-1.137 4.834,-4.364 7.495,-7.413 z m 5.945,-13.714 c -0.916,-2.092 -2.222,-4.086 -2.903,-4.402 -1.72,0.687 -4.464,2.298 -5.796,3.103 l -0.352,11.041 c 2.789,0.209 5.082,0.957 5.241,1.009 l 0.486,0.163 c 0.197,-0.274 0.429,-0.515 0.689,-0.727 1.073,-4.904 1.932,-8.108 2.635,-10.187 m 8.883,8.941 c -0.322,-4.618 -0.73,-9.423 -1.043,-11.893 -0.427,0.23 -0.871,0.48 -1.216,0.673 -1.126,0.633 -1.934,1.077 -2.571,1.338 -0.15,0.276 -0.329,0.717 -0.529,1.283 l -2.267,8.661 c 1.233,-0.13 2.59,-0.175 3.862,-0.175 1.484,0 2.849,0.061 3.764,0.113 m -0.566,3.411 c -3.055,-0.158 -7.267,-0.146 -8.766,0.474 -0.572,0.236 -0.891,3.35 -0.21,6.709 l 1.231,5.563 0.041,0.306 c 0.04,1.033 1.987,3.114 3.081,3.611 1.289,-1.992 4.605,-7.3 5.661,-8.992 z M 39.477,39.313 C 37.57,39.594 29.75,37.774 24.17,39.095 c -1.178,0.521 -2.35,0.99 -3.484,1.368 -4.064,1.354 -6.694,4.472 -7.617,6.298 2.782,0.762 7.098,2.259 9.015,5.778 0.647,1.188 1.238,3.053 0.744,5.5 4.145,-0.416 9.05,-0.725 13.865,-0.805 1.857,-0.256 3.583,-0.514 4.949,-0.718 8.633,-1.295 10.632,-1.495 12.109,-0.691 1.565,0.693 12.48,2.866 23.891,4.927 0.307,-4.734 2.04,-8.465 8.337,-9.251 12.228,-1.528 46.236,-4.586 48.911,0 1.474,2.525 5.962,6.006 9.951,8.626 -3.215,-5.607 -7.953,-12.679 -12.872,-19.567 -1.768,-2.786 -5.292,-6.534 -9.553,-10.276 -9.391,-5.17 -25.706,-10.856 -41.26,-0.288 -13.725,9.323 -31.887,9.475 -41.679,9.317 M 9.86,51.843 C 9.451,51.731 9.081,51.56 8.748,51.343 L 0.5,61.352 c -1.241,5.078 -2.897,10.408 -5.851,15.489 -0.453,0.778 -0.928,1.553 -1.445,2.317 -0.517,0.764 -0.98,1.685 -1.395,2.733 -0.926,2.334 -1.606,5.316 -2.072,8.712 -0.186,1.349 -0.338,2.759 -0.457,4.221 -0.214,2.612 -0.326,5.384 -0.347,8.231 -0.011,1.431 0.003,2.88 0.036,4.339 0.057,2.471 0.176,4.964 0.349,7.432 0.11,1.555 0.241,3.098 0.394,4.616 0.261,2.622 0.582,5.171 0.955,7.579 0.009,0.062 0.018,0.124 0.028,0.184 0.22,1.405 0.369,2.798 0.473,4.177 0.202,2.678 0.219,5.29 0.152,7.778 -0.038,1.403 -0.098,2.768 -0.167,4.082 -0.148,2.843 -0.323,5.452 -0.323,7.718 0.128,0.586 0.259,1.167 0.396,1.745 -4.687,1.756 -9.459,3.305 -14.321,4.509 -5.091,1.26 -10.286,2.192 -15.536,2.456 -5.241,0.296 -10.571,-0.129 -15.636,-1.743 4.933,1.976 10.312,2.807 15.653,2.888 5.357,0.119 10.714,-0.449 15.991,-1.357 4.955,-0.856 9.843,-2.057 14.668,-3.47 0.166,0.616 0.335,1.229 0.51,1.834 0.54,1.875 1.787,4.447 3.568,7.485 -3.541,1.674 -7.158,3.195 -10.855,4.492 -4.826,1.685 -9.794,3.037 -14.879,3.669 -5.072,0.671 -10.3,0.552 -15.3,-0.831 4.881,1.751 10.19,2.275 15.4,1.972 5.23,-0.26 10.403,-1.263 15.456,-2.62 4.022,-1.085 7.97,-2.427 11.851,-3.938 1.709,2.705 3.751,5.684 6.035,8.817 -3.279,2.001 -6.652,3.849 -10.133,5.475 -4.553,2.112 -9.291,3.892 -14.221,4.909 -4.911,1.059 -10.063,1.26 -15.032,0.094 4.862,1.538 10.133,1.743 15.222,1.036 5.114,-0.66 10.1,-2.115 14.922,-3.926 3.813,-1.445 7.524,-3.144 11.148,-5.013 2.049,2.726 4.256,5.538 6.566,8.362 -3.235,2.531 -6.598,4.899 -10.116,7.018 -4.275,2.541 -8.775,4.76 -13.556,6.182 -4.753,1.466 -9.858,2.008 -14.832,1.051 4.881,1.335 10.145,1.193 15.117,0.059 5.005,-1.084 9.794,-3.009 14.373,-5.282 3.834,-1.93 7.522,-4.136 11.088,-6.524 2.193,2.617 4.46,5.223 6.758,7.759 -3.273,3.273 -6.736,6.358 -10.424,9.152 -3.986,2.975 -8.24,5.638 -12.869,7.49 -4.599,1.871 -9.67,2.823 -14.687,2.057 4.938,1.148 10.213,0.588 15.072,-0.976 4.893,-1.542 9.47,-3.944 13.79,-6.687 3.996,-2.576 7.783,-5.466 11.388,-8.563 2.25,2.416 4.514,4.745 6.752,6.935 -0.245,0.314 -0.483,0.633 -0.73,0.943 -3.135,3.93 -6.51,7.676 -10.185,11.103 -3.678,3.415 -7.684,6.513 -12.145,8.832 -4.443,2.287 -9.485,3.702 -14.586,3.122 5.038,0.968 10.332,-0.07 15.07,-2.083 4.762,-2.037 9.121,-4.915 13.157,-8.133 4.035,-3.232 7.78,-6.81 11.293,-10.595 0.229,-0.247 0.448,-0.5 0.674,-0.748 2.255,2.115 4.468,4.06 6.595,5.78 -0.767,1.267 -1.547,2.526 -2.346,3.764 -2.797,4.283 -5.81,8.44 -9.193,12.274 -3.368,3.842 -7.109,7.385 -11.388,10.184 -4.272,2.728 -9.282,4.658 -14.507,4.267 5.18,0.784 10.491,-0.791 15.09,-3.281 4.611,-2.55 8.729,-5.912 12.468,-9.593 3.761,-3.677 7.156,-7.7 10.343,-11.872 0.859,-1.138 1.696,-2.284 2.52,-3.439 2.252,1.647 4.373,2.983 6.307,3.928 -1.288,2.879 -2.67,5.739 -4.134,8.53 -2.458,4.634 -5.141,9.163 -8.213,13.412 -1.525,2.133 -3.158,4.187 -4.917,6.125 -1.758,1.937 -3.621,3.792 -5.688,5.396 -2.057,1.61 -4.285,3.022 -6.71,4.024 -2.417,1.004 -5.048,1.567 -7.711,1.48 2.648,0.28 5.362,-0.092 7.909,-0.942 2.555,-0.846 4.954,-2.132 7.188,-3.637 2.246,-1.498 4.297,-3.264 6.244,-5.122 1.95,-1.86 3.776,-3.846 5.495,-5.916 3.46,-4.125 6.531,-8.552 9.386,-13.108 1.763,-2.85 3.425,-5.737 5.003,-8.695 1.748,0.627 3.509,1.179 5.278,1.662 -0.241,1.218 -0.523,2.455 -0.821,3.66 -0.583,2.194 -1.234,4.38 -1.998,6.533 -1.515,4.31 -3.363,8.528 -5.602,12.547 -2.222,4.023 -4.722,7.929 -7.634,11.529 -2.813,3.688 -6.106,6.98 -9.499,10.182 3.637,-2.907 7.224,-5.946 10.369,-9.436 3.244,-3.401 6.114,-7.159 8.728,-11.093 2.632,-3.929 4.893,-8.113 6.833,-12.456 0.975,-2.171 1.843,-4.393 2.644,-6.648 0.423,-1.267 0.822,-2.515 1.188,-3.799 1.931,0.413 3.864,0.76 5.796,1.039 -0.299,1.741 -0.634,3.48 -1.042,5.206 -1.035,4.405 -2.437,8.742 -4.219,12.931 l -0.651,1.581 -0.733,1.542 c -0.502,1.023 -0.968,2.069 -1.5,3.079 -1.121,1.985 -2.167,4.029 -3.464,5.92 -2.403,3.914 -5.355,7.455 -8.417,10.913 3.329,-3.185 6.601,-6.504 9.356,-10.256 1.472,-1.808 2.702,-3.786 4.015,-5.719 0.627,-0.984 1.19,-2.006 1.789,-3.01 l 0.882,-1.517 0.8,-1.56 c 2.181,-4.144 4,-8.491 5.453,-12.971 0.606,-1.862 1.135,-3.753 1.619,-5.659 2.341,0.244 4.667,0.409 6.971,0.509 -0.046,0.425 -0.092,0.85 -0.148,1.274 -0.572,4.492 -1.536,8.945 -2.85,13.302 -0.594,2.202 -1.447,4.315 -2.207,6.471 -0.93,2.079 -1.732,4.236 -2.838,6.24 -1.983,4.143 -4.588,7.946 -7.311,11.676 3.015,-3.483 5.961,-7.099 8.312,-11.117 1.292,-1.944 2.282,-4.052 3.408,-6.1 0.956,-2.124 2.007,-4.221 2.804,-6.422 1.715,-4.353 3.092,-8.858 4.071,-13.461 0.125,-0.582 0.24,-1.166 0.351,-1.752 2.684,0.048 5.326,0.031 7.899,-0.034 -0.2,3.988 -0.67,7.971 -1.415,11.911 -0.378,2.273 -0.989,4.489 -1.542,6.729 -0.32,1.107 -0.688,2.199 -1.03,3.302 l -0.527,1.651 -0.633,1.612 c -1.551,4.37 -3.795,8.448 -6.166,12.46 2.685,-3.794 5.289,-7.721 7.22,-12.008 l 0.775,-1.584 0.673,-1.628 c 0.439,-1.09 0.905,-2.174 1.324,-3.274 0.75,-2.229 1.561,-4.452 2.138,-6.741 1.131,-4.103 1.973,-8.297 2.516,-12.54 2.937,-0.113 5.776,-0.263 8.474,-0.404 0.045,-0.002 0.088,-0.008 0.133,-0.01 0.058,3.281 -0.048,6.569 -0.331,9.847 -0.126,1.163 -0.178,2.341 -0.363,3.497 l -0.518,3.484 c -0.178,1.161 -0.467,2.3 -0.696,3.454 l -0.363,1.729 c -0.137,0.572 -0.313,1.133 -0.467,1.701 l -0.96,3.405 -1.205,3.33 -0.612,1.667 -0.734,1.615 -1.473,3.239 1.731,-3.113 0.868,-1.563 0.747,-1.621 1.486,-3.259 1.246,-3.359 c 0.203,-0.563 0.428,-1.12 0.613,-1.688 l 0.51,-1.72 c 0.327,-1.151 0.713,-2.292 0.991,-3.458 l 0.813,-3.507 c 0.286,-1.169 0.436,-2.36 0.661,-3.542 0.577,-3.43 0.966,-6.897 1.175,-10.381 3.175,-0.317 6.179,-0.854 9.036,-1.553 0.292,3.011 0.467,6.035 0.494,9.066 0.087,4.822 -0.325,9.646 -1.08,14.425 l -0.644,3.577 c -0.277,1.178 -0.594,2.348 -0.89,3.526 l -0.452,1.767 -0.589,1.724 -1.184,3.459 1.454,-3.359 0.726,-1.685 0.592,-1.735 c 0.391,-1.16 0.803,-2.315 1.176,-3.484 l 0.934,-3.56 c 1.144,-4.772 1.951,-9.657 2.249,-14.582 0.23,-3.306 0.292,-6.627 0.211,-9.949 3.164,-0.94 6.124,-2.082 8.88,-3.379 0.687,3.536 1.212,7.107 1.563,10.7 0.531,4.964 0.543,9.974 0.245,14.972 l -0.324,3.745 c -0.149,1.245 -0.38,2.478 -0.566,3.721 l -0.295,1.863 c -0.127,0.615 -0.288,1.223 -0.43,1.835 l -0.883,3.677 1.16,-3.604 c 0.189,-0.602 0.397,-1.202 0.572,-1.81 l 0.438,-1.845 c 0.281,-1.233 0.608,-2.461 0.853,-3.704 l 0.615,-3.757 c 0.686,-5.025 1.06,-10.128 0.904,-15.224 -0.087,-4.023 -0.389,-8.045 -0.892,-12.049 2.901,-1.552 5.545,-3.26 7.962,-5.042 1.474,4.815 2.666,9.723 3.562,14.692 0.968,5.11 1.407,10.304 1.563,15.511 0.158,5.219 -0.363,10.429 -1.207,15.61 1.217,-5.095 2.128,-10.311 2.354,-15.59 0.227,-5.268 0.164,-10.583 -0.441,-15.847 -0.555,-5.268 -1.433,-10.511 -2.633,-15.688 -0.078,-0.329 -0.165,-0.655 -0.244,-0.984 2.451,-2.021 4.612,-4.085 6.503,-6.089 0.719,1.686 1.418,3.381 2.075,5.084 1.937,5.059 3.584,10.234 4.935,15.493 1.392,5.255 2.271,10.629 2.876,16.041 0.589,5.423 0.53,10.893 0.107,16.36 0.802,-5.414 1.249,-10.921 1.037,-16.434 -0.226,-5.5 -0.74,-11.022 -1.779,-16.452 -0.998,-5.437 -2.307,-10.824 -3.924,-16.127 -0.753,-2.435 -1.555,-4.839 -2.419,-7.23 2.037,-2.436 3.631,-4.659 4.806,-6.443 2.165,3.842 4.176,7.869 6.017,11.916 2.339,5.177 4.401,10.486 6.178,15.896 1.808,5.404 3.135,10.956 4.181,16.568 1.022,5.624 1.426,11.341 1.436,17.085 0.372,-5.723 0.351,-11.506 -0.3,-17.245 -0.677,-5.725 -1.648,-11.444 -3.114,-17.043 -1.434,-5.605 -3.17,-11.141 -5.203,-16.573 -1.937,-5.129 -4.059,-10.122 -6.579,-15.097 l 4.882,-13.903 c 0,0 3.7,5.664 8.408,15.593 10.163,-6.871 24.165,-16.551 29.627,-21.329 5.808,-5.083 12.653,-38.005 16.401,-61.969 -8.774,5.564 -23.514,5.776 -29.556,4.839 l -6.429,21.078 -3.556,11.524 c -1.215,3.832 -2.354,7.69 -3.702,11.48 0.98,-3.894 1.748,-7.841 2.592,-11.769 l 2.446,-11.803 4.689,-23.026 c -1.652,-5.864 -6.596,-25.972 -6.596,-29.325 0,-0.308 0.033,-0.602 0.088,-0.887 -0.043,-0.008 -0.087,-0.018 -0.13,-0.028 -0.134,0.491 -0.267,0.982 -0.41,1.475 -0.405,1.355 -0.773,2.692 -1.472,4.139 -0.183,0.357 -0.405,0.766 -0.735,1.141 -0.312,0.358 -0.682,0.702 -1.126,0.943 -0.876,0.521 -1.885,0.626 -2.721,0.526 -1.699,-0.213 -3.014,-0.946 -4.24,-1.707 -1.218,-0.782 -2.314,-1.676 -3.351,-2.626 -1.015,-0.958 -2.048,-1.95 -2.829,-3.156 l -0.619,-0.884 c 0.384,1.205 0.676,2.417 0.903,3.623 0.882,4.81 0.782,9.567 0.171,14.207 -0.642,4.637 -1.823,9.182 -3.707,13.528 -0.95,2.169 -2.079,4.291 -3.518,6.288 -1.042,1.439 -2.255,2.834 -3.74,4.028 0.042,0.129 0.084,0.259 0.127,0.389 0.256,0.733 0.552,1.495 0.859,2.264 l 1.9,4.692 c 1.266,3.168 2.449,6.409 3.38,9.729 0.927,3.318 1.598,6.738 1.742,10.189 0.123,3.441 -0.343,6.945 -1.757,10.022 0.961,-3.248 0.907,-6.638 0.332,-9.87 -0.603,-3.242 -1.692,-6.365 -3.017,-9.38 -1.332,-3.018 -2.89,-5.933 -4.551,-8.822 l -2.541,-4.37 c -0.428,-0.744 -0.854,-1.502 -1.275,-2.309 -0.209,-0.42 -0.418,-0.828 -0.62,-1.315 -0.018,-0.041 -0.036,-0.087 -0.053,-0.129 -8.438,-2.269 -16.956,-4.261 -25.548,-5.713 -4.587,-0.764 -9.199,-1.376 -13.808,-1.65 -4.586,-0.244 -9.269,-0.263 -13.559,0.865 -2.131,0.593 -4.079,1.509 -5.356,3.142 -1.322,1.617 -2.035,3.77 -2.426,5.981 -0.741,4.476 -0.413,9.196 -0.079,13.854 0.353,4.675 0.845,9.371 0.871,14.096 0.006,2.359 -0.104,4.731 -0.513,7.061 -0.411,2.32 -1.139,4.626 -2.457,6.583 1.228,-2.015 1.841,-4.322 2.145,-6.63 0.299,-2.318 0.303,-4.664 0.192,-6.998 -0.234,-4.674 -0.932,-9.313 -1.496,-13.987 -0.54,-4.673 -1.111,-9.404 -0.539,-14.263 0.322,-2.403 0.978,-4.916 2.547,-7.047 0.765,-1.051 1.795,-1.992 2.906,-2.656 1.11,-0.677 2.286,-1.178 3.473,-1.563 4.773,-1.478 9.631,-1.639 14.403,-1.614 4.783,0.066 9.527,0.477 14.24,1.042 9.02,1.104 17.934,2.776 26.777,4.739 1.134,-0.89 2.177,-2.076 3.072,-3.416 1.095,-1.631 2.005,-3.465 2.764,-5.375 1.513,-3.827 2.448,-7.959 2.877,-12.097 0.413,-4.136 0.328,-8.341 -0.527,-12.219 -0.214,-0.995 -0.492,-1.969 -0.829,-2.896 C 143.264,87.946 140.111,99.921 108.142,98.5 73.753,96.971 77.191,84.744 77.956,75.191 c 0.217,-2.725 -0.031,-5.7 -0.213,-8.595 -1.878,-0.336 -3.927,-0.706 -6.034,-1.097 -2.592,6.142 -9.916,21.167 -10.61,31.708 0.044,0.286 0.09,0.571 0.145,0.857 0.536,2.682 1.386,5.415 2.622,8.048 1.239,2.628 2.751,5.195 4.492,7.641 1.749,2.437 3.684,4.793 5.872,6.932 -2.655,-1.535 -5.162,-3.367 -7.554,-5.375 -2.385,-2.018 -4.628,-4.257 -6.681,-6.74 -0.072,-0.088 -0.138,-0.182 -0.209,-0.27 0.407,15.302 1.833,30.858 6.324,41.02 0,0 0.382,43.56 22.162,50.821 21.78,7.26 59.227,-6.114 59.227,-6.114 0,0 -0.44,0.644 -1.305,1.71 -0.754,0.93 -1.842,2.189 -3.243,3.626 -1.461,1.5 -3.265,3.192 -5.417,4.929 -1.063,0.858 -2.213,1.723 -3.444,2.581 -1.999,1.395 -4.213,2.761 -6.649,4.022 -1.146,0.593 -2.335,1.164 -3.577,1.7 -2.305,0.995 -4.779,1.872 -7.411,2.586 -1.207,0.328 -2.451,0.616 -3.727,0.867 -2.392,0.472 -4.903,0.795 -7.533,0.944 -1.295,0.073 -2.614,0.112 -3.968,0.096 -1.115,-0.015 -2.246,-0.053 -3.401,-0.135 -1.273,-0.09 -2.486,-0.174 -3.654,-0.255 -1.51,-0.106 -2.936,-0.204 -4.282,-0.297 -2.312,-0.159 -4.391,-0.302 -6.27,-0.436 -0.215,-0.016 -0.431,-0.031 -0.642,-0.046 -17.085,-1.229 -17.128,-1.713 -27.803,-6.942 -8.497,-4.162 -9.711,-7.165 -9.711,-7.165 0,0 -1.991,-1.169 -4.053,-2.457 -1.441,-0.899 -2.906,-1.85 -3.764,-2.505 -0.064,-0.05 -0.136,-0.103 -0.192,-0.148 -0.683,-0.546 -2.551,-2.613 -4.667,-5.041 -0.935,-1.073 -1.915,-2.213 -2.866,-3.327 -2.108,-2.469 -4.057,-4.791 -4.985,-5.9 -0.359,-0.43 -0.57,-0.683 -0.57,-0.683 l -2.491,-2.25 -4.96,-4.484 c 0,0 -0.331,-0.541 -0.891,-1.477 -0.52,-0.868 -1.242,-2.082 -2.087,-3.529 -1.202,-2.06 -2.652,-4.592 -4.137,-7.289 -0.66,-1.199 -1.324,-2.428 -1.976,-3.662 -1.299,-2.456 -2.54,-4.922 -3.579,-7.19 -0.646,-1.411 -1.215,-2.745 -1.666,-3.946 -0.523,-1.393 -0.891,-2.612 -1.044,-3.572 0,0 -0.294,-1.338 -0.707,-3.667 C 0.649,139.686 0.45,138.507 0.243,137.169 -1.373,126.758 -3.492,106.882 0.345,90.091 0.402,88.161 0.646,86.236 0.793,84.409 1.47,75.947 13.298,68.302 19.48,60.414 23.678,52.434 12.178,52.441 10.526,52.018 10.276,51.954 10.052,51.896 9.86,51.843 m -21.876,88.335 c -1.16,0.341 -2.321,0.672 -3.482,0.99 -5.23,1.413 -10.528,2.603 -15.885,3.441 -5.354,0.837 -10.775,1.362 -16.203,1.263 -5.421,-0.067 -10.879,-0.798 -16.036,-2.655 5.012,2.214 10.49,3.348 15.977,3.801 5.497,0.483 11.04,0.337 16.537,-0.131 5.504,-0.472 10.971,-1.305 16.393,-2.37 1.026,-0.206 2.046,-0.425 3.065,-0.645 -0.093,-1.168 -0.217,-2.403 -0.366,-3.694 m -1.716,-12.114 c -3.025,0.672 -6.078,1.279 -9.126,1.815 -5.543,0.962 -11.13,1.71 -16.745,2.127 -5.612,0.417 -11.261,0.536 -16.879,0.084 -5.613,-0.428 -11.221,-1.466 -16.495,-3.584 5.118,2.47 10.721,3.909 16.366,4.721 5.654,0.843 11.386,1.108 17.102,1.071 5.72,-0.041 11.435,-0.416 17.127,-1.013 3.103,-0.335 6.184,-0.73 9.267,-1.198 -0.198,-1.317 -0.405,-2.662 -0.617,-4.023 m -1.729,-11.243 c -1.391,0.472 -2.8,0.913 -4.239,1.255 -3.442,0.829 -6.999,1.364 -10.586,1.426 -3.579,0.059 -7.212,-0.117 -10.77,-0.833 -1.805,-0.251 -3.545,-0.785 -5.317,-1.226 -1.763,-0.478 -3.46,-1.162 -5.206,-1.739 1.667,0.751 3.302,1.616 5.019,2.282 1.73,0.627 3.441,1.354 5.241,1.799 3.546,1.106 7.248,1.683 10.978,2.009 3.739,0.323 7.525,0.159 11.28,-0.339 1.402,-0.183 2.793,-0.456 4.181,-0.761 -0.197,-1.286 -0.391,-2.579 -0.581,-3.873 m -6.488,-37.757 c -2.874,-0.165 -5.778,-0.454 -8.622,-1.101 -1.443,-0.25 -2.836,-0.691 -4.258,-1.061 -1.412,-0.399 -2.783,-0.927 -4.187,-1.39 1.326,0.636 2.63,1.344 3.991,1.929 1.37,0.554 2.725,1.183 4.146,1.626 2.799,1.032 5.722,1.718 8.681,2.276 1.889,0.342 3.805,0.552 5.735,0.672 0.252,-1.077 0.549,-2.109 0.9,-3.082 -2.112,0.18 -4.248,0.237 -6.386,0.131 m -25.443,23.243 c 1.553,0.713 3.076,1.524 4.673,2.163 1.609,0.602 3.201,1.297 4.873,1.742 3.295,1.082 6.736,1.695 10.21,2.102 3.481,0.404 7.018,0.367 10.544,0.044 0.167,-0.014 0.331,-0.044 0.498,-0.06 -0.137,-1.171 -0.263,-2.336 -0.376,-3.491 -0.214,0.047 -0.425,0.108 -0.64,0.152 -3.235,0.665 -6.563,1.08 -9.913,1.065 -3.343,-0.017 -6.731,-0.232 -10.047,-0.924 -1.682,-0.252 -3.305,-0.755 -4.96,-1.171 -1.643,-0.453 -3.231,-1.084 -4.862,-1.622 m 8.71,-11.892 c -1.526,-0.427 -3.005,-1.005 -4.521,-1.505 1.436,0.673 2.851,1.433 4.328,2.045 1.489,0.578 2.962,1.239 4.508,1.684 3.047,1.057 6.228,1.708 9.444,2.192 2.423,0.355 4.881,0.499 7.35,0.485 -0.023,-1.078 -0.025,-2.136 -0.007,-3.176 -2.362,0.308 -4.761,0.467 -7.166,0.405 -3.107,-0.092 -6.251,-0.344 -9.33,-1.016 -1.562,-0.25 -3.067,-0.721 -4.606,-1.114 m 255.576,15.207 0.297,0.043 c 0.206,-0.235 0.4,-0.476 0.581,-0.726 7.898,-10.861 14.898,-25.032 -0.096,-39.044 0.046,0.462 0.091,0.836 0.132,1.081 0.548,3.291 6.905,25.237 -37.256,17.073 0.015,2.604 5.005,23.389 6.517,28.436 6.432,1.042 23.217,0.376 29.764,-6.441 0.019,-0.14 0.041,-0.284 0.061,-0.422 m 4.591,-40.814 c 16.44,16.886 4.925,34.054 -0.4,41.421 l 0.347,0.051 c -0.913,6.305 -9.204,61.834 -18.735,70.176 -5.814,5.085 -20.421,15.166 -30.704,22.105 9.017,20.209 20.202,54.072 17.104,93.118 -2.112,26.621 -8.927,38.57 -8.927,38.57 0,0 -9.839,-50.033 -24.152,-63.025 -14.311,-12.991 -20.153,72.099 -26.267,70.38 -3.899,-35.136 -23.228,-64.266 -23.228,-64.266 0,0 -21.116,57.293 -33.057,64.266 4.776,-29.9 -17.86,-57.388 -17.86,-57.388 0,0 -38.698,40.097 -51.015,37.231 15.47,-20.059 10.317,-53.494 10.317,-53.494 0,0 -49.865,32.001 -73.365,29.995 36.109,-23.222 41.28,-59.546 41.28,-59.546 0,0 -62.2,17.897 -75.67,13.885 30.009,-20.348 49.326,-52.179 49.326,-52.179 0,0 -60.216,-18.225 -60.216,-28.829 28.468,-1.814 45.662,-15.284 45.662,-15.284 0,0 -40.981,-15.465 -41.65,-23.489 25.124,-0.088 48.146,-15.678 48.146,-15.678 0,0 -34.39,-21.492 -34.39,-28.37 26.079,5.731 51.202,-0.423 51.202,-0.423 0,0 -35.727,-23.808 -33.721,-29.383 21.494,10.032 43.274,-0.467 43.274,-0.467 0,0 -32.835,-31.184 -29.6,-41.607 19.043,11.42 37.86,5.677 41.809,-1.185 1.577,0.858 3.166,1.7 4.772,2.514 1.672,0.853 3.361,1.673 5.065,2.476 0.135,0.062 0.271,0.123 0.406,0.186 l -1.607,9.635 c -0.02,-0.003 -0.039,-0.005 -0.059,-0.008 -2,-0.269 -4.004,-0.601 -5.996,-1.015 -3.988,-0.82 -7.946,-1.91 -11.841,-3.259 3.578,2.044 7.311,3.872 11.172,5.452 1.929,0.793 3.895,1.512 5.891,2.174 0.088,0.028 0.175,0.056 0.263,0.084 l -1.615,9.678 c -0.064,-0.001 -0.13,-0.003 -0.193,-0.005 -2.205,-0.115 -4.421,-0.33 -6.628,-0.673 -2.202,-0.357 -4.412,-0.768 -6.587,-1.344 -2.19,-0.537 -4.342,-1.229 -6.491,-1.968 1.991,1.086 4.017,2.142 6.115,3.052 2.086,0.948 4.241,1.743 6.425,2.489 2.189,0.73 4.426,1.341 6.702,1.85 0.03,0.007 0.058,0.013 0.088,0.018 l -1.617,9.695 c -0.087,10e-4 -0.174,0.008 -0.262,0.008 -2.409,0.043 -4.842,-0.056 -7.269,-0.33 -2.42,-0.293 -4.857,-0.663 -7.248,-1.262 -2.408,-0.545 -4.767,-1.304 -7.122,-2.123 2.196,1.167 4.437,2.293 6.773,3.214 2.319,0.977 4.727,1.736 7.169,2.423 2.43,0.664 4.914,1.154 7.439,1.502 -0.303,2.15 -0.744,5.46 -1.217,9.641 -0.243,0.022 -0.484,0.055 -0.727,0.071 -2.616,0.197 -5.27,0.222 -7.922,0.013 -2.645,-0.23 -5.313,-0.559 -7.928,-1.183 -2.635,-0.554 -5.21,-1.381 -7.774,-2.283 2.407,1.249 4.869,2.446 7.447,3.382 2.557,1.005 5.222,1.728 7.923,2.353 2.707,0.602 5.475,0.972 8.276,1.157 0.106,0.008 0.214,0.007 0.32,0.014 -0.046,0.446 -0.093,0.902 -0.139,1.361 0.213,-0.444 0.419,-0.891 0.615,-1.341 0.53,-1.219 0.998,-2.455 1.417,-3.704 1.015,-3.026 1.756,-6.119 2.44,-9.187 0.129,-0.577 0.256,-1.156 0.383,-1.732 0.159,-0.721 0.319,-1.442 0.482,-2.167 0.662,-2.949 1.382,-5.918 2.36,-8.813 0.47,-1.395 1.003,-2.772 1.615,-4.124 0.929,-2.049 2.043,-4.039 3.427,-5.925 8.326,-11.354 24.236,-11.183 29.1,-10.838 l 4.264,-2.477 C 41.124,12.358 50.604,-4.211 43.731,-21.395 33.527,-46.9 30.605,-58.346 38.922,-63.202 c 2.221,-1.297 5.788,-2.495 9.919,-3.885 6.98,-2.348 16.19,-5.446 19.661,-9.656 0.25,-0.416 0.511,-0.799 0.783,-1.151 0.154,-0.283 0.284,-0.571 0.382,-0.864 1.847,-5.542 11.44,-8.759 25.961,-13.63 13.486,-4.522 30.255,-10.147 43.512,-19.128 5.502,-5.6 12.534,-7.067 19.754,-7.066 4.154,0 8.371,0.485 12.395,0.95 6.762,0.778 13.147,1.515 16.692,-0.585 l 0.597,-0.354 0.692,0.037 c 8.935,0.47 9.742,17.547 9.814,20.965 l 0.012,0.633 -0.313,0.55 c -2.295,4.022 -5.036,9.651 -6.988,14.982 0.046,0.099 0.103,0.195 0.148,0.297 l -0.297,0.108 c -1.97,5.472 -3.062,10.575 -1.925,13.228 0.353,0.88 0.857,2.375 1.63,5.039 l 0.091,0.313 v 5.832 l 4.863,2.288 0.667,15.65 2.03,3.833 0.058,0.391 c 1.063,7.231 -0.657,20.281 -2.49,30.886 2.528,5.727 12.317,4.54 18.159,6.2 0.163,-0.013 0.315,-0.042 0.484,-0.042 0.207,0 0.418,0.009 0.635,0.026 2.316,0.195 4.422,1.681 6.261,4.421 4.373,6.52 6.622,19.312 5.11,24.104 -5.406,17.131 -5.717,32.083 -5.734,33.638"
             style="fill:#110f0d;fill-opacity:1;fill-rule:nonzero;stroke:none"
             id="path66615" />
        </g>
      </g>
    </g>
  </g>
</svg>
